<?xml version="1.0" encoding="UTF-8" standalone="no"?><svg xmlns="http://www.w3.org/2000/svg" xmlns:xlink="http://www.w3.org/1999/xlink" contentScriptType="application/ecmascript" contentStyleType="text/css" height="157px" preserveAspectRatio="none" style="width:255px;height:157px;" version="1.1" viewBox="0 0 255 157" width="255px" zoomAndPan="magnify"><defs><filter height="300%" id="f8iqc8i4f4w9c" width="300%" x="-1" y="-1"><feGaussianBlur result="blurOut" stdDeviation="2.0"/><feColorMatrix in="blurOut" result="blurOut2" type="matrix" values="0 0 0 0 0 0 0 0 0 0 0 0 0 0 0 0 0 0 .4 0"/><feOffset dx="4.0" dy="4.0" in="blurOut2" result="blurOut3"/><feBlend in="SourceGraphic" in2="blurOut3" mode="normal"/></filter></defs><g><!--class Meal--><rect fill="#FEFECE" filter="url(#f8iqc8i4f4w9c)" height="138.6855" id="Meal" style="stroke: #A80036; stroke-width: 1.5;" width="238" x="6" y="8"/><ellipse cx="107.25" cy="24" fill="#ADD1B2" rx="11" ry="11" style="stroke: #A80036; stroke-width: 1.0;"/><path d="M110.2231,29.6431 Q109.6421,29.9419 109.0029,30.0913 Q108.3638,30.2407 107.6582,30.2407 Q105.1514,30.2407 103.8315,28.5889 Q102.5117,26.937 102.5117,23.8159 Q102.5117,20.6865 103.8315,19.0347 Q105.1514,17.3828 107.6582,17.3828 Q108.3638,17.3828 109.0112,17.5322 Q109.6587,17.6816 110.2231,17.9805 L110.2231,20.7031 Q109.5923,20.1221 108.9988,19.8523 Q108.4053,19.5825 107.7744,19.5825 Q106.4297,19.5825 105.7449,20.6492 Q105.0601,21.7158 105.0601,23.8159 Q105.0601,25.9077 105.7449,26.9744 Q106.4297,28.041 107.7744,28.041 Q108.4053,28.041 108.9988,27.7712 Q109.5923,27.5015 110.2231,26.9204 Z "/><text fill="#000000" font-family="sans-serif" font-size="12" lengthAdjust="spacingAndGlyphs" textLength="27" x="127.75" y="28.5352">Meal</text><line style="stroke: #A80036; stroke-width: 1.5;" x1="7" x2="243" y1="40" y2="40"/><line style="stroke: #A80036; stroke-width: 1.5;" x1="7" x2="243" y1="48" y2="48"/><ellipse cx="17" cy="59.9775" fill="#84BE84" rx="3" ry="3" style="stroke: #038048; stroke-width: 1.0;"/><text fill="#000000" font-family="sans-serif" font-size="11" lengthAdjust="spacingAndGlyphs" textLength="212" x="26" y="62.6348">Meal(name: String, ingredients: String[])</text><ellipse cx="17" cy="72.9326" fill="#84BE84" rx="3" ry="3" style="stroke: #038048; stroke-width: 1.0;"/><text fill="#000000" font-family="sans-serif" font-size="11" lengthAdjust="spacingAndGlyphs" textLength="98" x="26" y="75.5898">isVegan(): Boolean</text><ellipse cx="17" cy="85.8877" fill="#84BE84" rx="3" ry="3" style="stroke: #038048; stroke-width: 1.0;"/><text fill="#000000" font-family="sans-serif" font-size="11" lengthAdjust="spacingAndGlyphs" textLength="122" x="26" y="88.5449">isVegetarian(): Boolean</text><ellipse cx="17" cy="98.8428" fill="#84BE84" rx="3" ry="3" style="stroke: #038048; stroke-width: 1.0;"/><text fill="#000000" font-family="sans-serif" font-size="11" lengthAdjust="spacingAndGlyphs" textLength="123" x="26" y="101.5">isGlutenFree(): Boolean</text><ellipse cx="17" cy="111.7979" fill="#84BE84" rx="3" ry="3" style="stroke: #038048; stroke-width: 1.0;"/><text fill="#000000" font-family="sans-serif" font-size="11" lengthAdjust="spacingAndGlyphs" textLength="99" x="26" y="114.4551">hasPork(): Boolean</text><ellipse cx="17" cy="124.7529" fill="#84BE84" rx="3" ry="3" style="stroke: #038048; stroke-width: 1.0;"/><text fill="#000000" font-family="sans-serif" font-size="11" lengthAdjust="spacingAndGlyphs" textLength="118" x="26" y="127.4102">hasChicken(): Boolean</text><ellipse cx="17" cy="137.708" fill="#84BE84" rx="3" ry="3" style="stroke: #038048; stroke-width: 1.0;"/><text fill="#000000" font-family="sans-serif" font-size="11" lengthAdjust="spacingAndGlyphs" textLength="100" x="26" y="140.3652">getPrice(): Number</text><!--
@startuml
class Meal {
	+Meal(name: String, ingredients: String[])
	+isVegan(): Boolean
	+isVegetarian(): Boolean
	+isGlutenFree(): Boolean
	+hasPork(): Boolean
	+hasChicken(): Boolean
	+getPrice(): Number
}
@enduml

PlantUML version 1.2017.16(Sun Sep 03 12:53:37 CEST 2017)
(GPL source distribution)
Java Runtime: Java(TM) SE Runtime Environment
JVM: Java HotSpot(TM) 64-Bit Server VM
Java Version: 1.8.0_144-b01
Operating System: Mac OS X
OS Version: 10.12.6
Default Encoding: UTF-8
Language: en
Country: US
--></g></svg>